<svg xmlns="http://www.w3.org/2000/svg" viewBox="0 0 27.2 31.551">
  <defs>
    <style>
      .cls-1 {
        fill: #2694b6;
        fill-rule: evenodd;
      }

      .cls-2 {
        fill: #fff;
      }

      .cls-2, .cls-3 {
        stroke: #2694b6;
      }

      .cls-3 {
        fill: #86888c;
        stroke-width: 0.5px;
      }

      .cls-4 {
        stroke: none;
      }

      .cls-5 {
        fill: none;
      }
    </style>
  </defs>
  <g id="Descargar_Factura" data-name="Descargar Factura" transform="translate(-448.983 -1768.122)">
    <g id="noun_Document_103674" transform="translate(448.983 1768.122)">
      <g id="Group_250" data-name="Group 250" transform="translate(0 0)">
        <path id="Path_269" data-name="Path 269" class="cls-1" d="M.022,22.839a2.2,2.2,0,0,0,2.2,2.2H17.075a2.2,2.2,0,0,0,2.2-2.2V7.432a2.6,2.6,0,0,0-.716-1.716L13.79.988A2.621,2.621,0,0,0,12.076.283H2.224a2.2,2.2,0,0,0-2.2,2.2Zm2.2-21.455a1.1,1.1,0,0,0-1.1,1.1V22.839a1.1,1.1,0,0,0,1.1,1.1H17.075a1.1,1.1,0,0,0,1.1-1.1V7.436H13.5a1.647,1.647,0,0,1-1.648-1.648v-4.4ZM17.748,6.335H13.5a.547.547,0,0,1-.547-.547V1.6Zm-3.415,4.872a.55.55,0,1,0,0-1.1H4.706a.55.55,0,1,0,0,1.1Zm-4.4-3.768a.55.55,0,1,0,0-1.1H4.706a.55.55,0,1,0,0,1.1Zm4.4,7.619a.55.55,0,1,0,0-1.1H4.706a.55.55,0,1,0,0,1.1Zm0,3.851a.55.55,0,1,0,0-1.1H4.706a.55.55,0,1,0,0,1.1Z" transform="translate(-0.022 -0.283)"/>
      </g>
    </g>
    <g id="Ellipse_3" data-name="Ellipse 3" class="cls-2" transform="translate(459.604 1783.094)">
      <circle class="cls-4" cx="8.289" cy="8.289" r="8.289"/>
      <circle class="cls-5" cx="8.289" cy="8.289" r="7.789"/>
    </g>
    <g id="regular_descarga" transform="translate(463.318 1787.073)">
      <path id="Path_2053" data-name="Path 2053" class="cls-3" d="M4.571,9.132h0a.445.445,0,0,1-.337-.156L.124,4.729.11,4.713a.469.469,0,0,1-.057-.5.447.447,0,0,1,.405-.26H2.285V.885A.886.886,0,0,1,3.169,0h2.8a.885.885,0,0,1,.882.885V3.95h1.84a.447.447,0,0,1,.405.26.468.468,0,0,1-.057.5l-.014.016L4.907,8.974A.445.445,0,0,1,4.571,9.132Zm-4-4.677,4,4.14,4.015-4.14H6.8a.457.457,0,0,1-.451-.463V.885a.38.38,0,0,0-.38-.38h-2.8a.38.38,0,0,0-.38.38V3.992a.457.457,0,0,1-.451.463Zm8.128,0Z" transform="translate(-0.005 0)"/>
    </g>
  </g>
</svg>
