<svg xmlns="http://www.w3.org/2000/svg" viewBox="0 0 27.204 31.556">
  <defs>
    <style>
      .cls-1, .cls-3 {
        fill: #86888c;
      }

      .cls-1 {
        fill-rule: evenodd;
      }

      .cls-2 {
        fill: #fff;
      }

      .cls-2, .cls-3 {
        stroke: #86888c;
      }

      .cls-3 {
        stroke-width: 0.5px;
      }

      .cls-4 {
        stroke: none;
      }

      .cls-5 {
        fill: none;
      }
    </style>
  </defs>
  <g id="Descargar_Factura" data-name="Descargar Factura" transform="translate(-448.983 -1768.122)">
    <g id="noun_Document_103674" transform="translate(448.983 1768.122)">
      <g id="Group_250" data-name="Group 250" transform="translate(0 0)">
        <path id="Path_269" data-name="Path 269" class="cls-1" d="M.022,22.842a2.2,2.2,0,0,0,2.2,2.2H17.078a2.2,2.2,0,0,0,2.2-2.2V7.434a2.6,2.6,0,0,0-.716-1.717L13.792.989A2.622,2.622,0,0,0,12.078.283H2.225a2.2,2.2,0,0,0-2.2,2.2Zm2.2-21.459a1.1,1.1,0,0,0-1.1,1.1v20.36a1.1,1.1,0,0,0,1.1,1.1H17.078a1.1,1.1,0,0,0,1.1-1.1V7.437H13.5a1.648,1.648,0,0,1-1.648-1.648V1.383ZM17.751,6.336H13.5a.547.547,0,0,1-.547-.547V1.605Zm-3.415,4.873a.55.55,0,0,0,0-1.1H4.707a.55.55,0,1,0,0,1.1ZM9.934,7.44a.55.55,0,1,0,0-1.1H4.707a.55.55,0,1,0,0,1.1Zm4.4,7.62a.55.55,0,1,0,0-1.1H4.707a.55.55,0,1,0,0,1.1Zm0,3.851a.55.55,0,0,0,0-1.1H4.707a.55.55,0,0,0,0,1.1Z" transform="translate(-0.022 -0.283)"/>
      </g>
    </g>
    <g id="Ellipse_3" data-name="Ellipse 3" class="cls-2" transform="translate(459.606 1783.097)">
      <circle class="cls-4" cx="8.291" cy="8.291" r="8.291"/>
      <circle class="cls-5" cx="8.291" cy="8.291" r="7.791"/>
    </g>
    <g id="regular_descarga" transform="translate(463.32 1787.076)">
      <path id="Path_2053" data-name="Path 2053" class="cls-3" d="M4.572,9.134h0a.445.445,0,0,1-.337-.156L.124,4.73.11,4.714a.469.469,0,0,1-.057-.5.447.447,0,0,1,.405-.26H2.285V.885A.886.886,0,0,1,3.17,0h2.8a.885.885,0,0,1,.883.885V3.95H8.7a.447.447,0,0,1,.405.26.468.468,0,0,1-.057.5l-.014.016L4.908,8.976A.445.445,0,0,1,4.572,9.134ZM.567,4.456,4.572,8.6,8.587,4.456H6.8a.457.457,0,0,1-.451-.464V.885a.38.38,0,0,0-.38-.38H3.17a.38.38,0,0,0-.38.38V3.993a.457.457,0,0,1-.451.464Zm8.13,0Z" transform="translate(-0.005 0)"/>
    </g>
  </g>
</svg>
