<svg xmlns="http://www.w3.org/2000/svg" viewBox="0 0 34.961 40.554">
  <defs>
    <style>
      .cls-1, .cls-3 {
        fill: #86888c;
      }

      .cls-1 {
        fill-rule: evenodd;
      }

      .cls-2 {
        fill: #fff;
        stroke-width: 1.5px;
      }

      .cls-2, .cls-3 {
        stroke: #86888c;
      }

      .cls-4 {
        stroke: none;
      }

      .cls-5 {
        fill: none;
      }
    </style>
  </defs>
  <g id="Descargar_Factura" data-name="Descargar Factura" transform="translate(-448.982 -1768.122)">
    <g id="noun_Document_103674" transform="translate(448.983 1768.122)">
      <g id="Group_250" data-name="Group 250" transform="translate(0 0)">
        <path id="Path_269" data-name="Path 269" class="cls-1" d="M.022,29.275A2.828,2.828,0,0,0,2.852,32.1H21.941a2.829,2.829,0,0,0,2.83-2.827V9.472a3.344,3.344,0,0,0-.92-2.206L17.719,1.19a3.369,3.369,0,0,0-2.2-.907H2.852A2.83,2.83,0,0,0,.022,3.11ZM2.852,1.7A1.416,1.416,0,0,0,1.437,3.11V29.275a1.414,1.414,0,0,0,1.415,1.413H21.941a1.415,1.415,0,0,0,1.415-1.413V9.476H17.341a2.117,2.117,0,0,1-2.118-2.118V1.7ZM22.805,8.062H17.341a.7.7,0,0,1-.7-.7V1.982Zm-4.389,6.262a.707.707,0,0,0,0-1.414H6.042a.707.707,0,1,0,0,1.414ZM12.76,9.481a.707.707,0,1,0,0-1.414H6.042a.707.707,0,1,0,0,1.414Zm5.657,9.793a.707.707,0,1,0,0-1.414H6.042a.707.707,0,1,0,0,1.414Zm0,4.95a.707.707,0,0,0,0-1.414H6.042a.707.707,0,1,0,0,1.414Z" transform="translate(-0.022 -0.283)"/>
      </g>
    </g>
    <g id="Ellipse_3" data-name="Ellipse 3" class="cls-2" transform="translate(462.635 1787.366)">
      <circle class="cls-4" cx="10.654" cy="10.654" r="10.654"/>
      <circle class="cls-5" cx="10.654" cy="10.654" r="9.904"/>
    </g>
    <g id="regular_descarga" transform="translate(467.408 1792.48)">
      <path id="Path_2053" data-name="Path 2053" class="cls-3" d="M5.874,11.738h0a.572.572,0,0,1-.434-.2L.158,6.079.14,6.058a.6.6,0,0,1-.073-.644A.574.574,0,0,1,.587,5.08H2.935V1.138A1.139,1.139,0,0,1,4.072,0h3.6A1.138,1.138,0,0,1,8.808,1.138V5.077h2.365a.574.574,0,0,1,.521.335.6.6,0,0,1-.073.644l-.018.021-5.3,5.459A.572.572,0,0,1,5.874,11.738ZM.727,5.727l5.147,5.322,5.16-5.322H8.74a.587.587,0,0,1-.58-.6V1.138A.488.488,0,0,0,7.672.65h-3.6a.488.488,0,0,0-.488.488V5.131a.587.587,0,0,1-.58.6Zm10.448,0Z" transform="translate(-0.005 0)"/>
    </g>
  </g>
</svg>
