<svg xmlns="http://www.w3.org/2000/svg" viewBox="0 0 21.115 26.1">
  <defs>
    <style>
      .cls-1 {
        fill: #b6b7b7;
        fill-rule: evenodd;
      }
    </style>
  </defs>
  <g id="noun_Trash_Can_1903590" data-name="noun_Trash Can_1903590" transform="translate(-121 -95)">
    <g id="Group_402" data-name="Group 402" transform="translate(121 95)">
      <path id="Path_2317" data-name="Path 2317" class="cls-1" d="M21.115,4.8H0V2.991A1.527,1.527,0,0,1,1.541,1.45H7.159A1.557,1.557,0,0,1,8.609,0h3.806a1.431,1.431,0,0,1,1.45,1.45h5.709a1.527,1.527,0,0,1,1.541,1.541Z"/>
      <path id="Path_2318" data-name="Path 2318" class="cls-1" d="M36.581,79.947a3.442,3.442,0,0,1-3.444,3.444H22.625A3.559,3.559,0,0,1,19,79.856V63H36.581Z" transform="translate(-17.278 -57.291)"/>
    </g>
  </g>
</svg>
