<svg xmlns="http://www.w3.org/2000/svg" xmlns:xlink="http://www.w3.org/1999/xlink" viewBox="0 0 67.44 139.407">
  <defs>
    <style>
      .cls-1, .cls-2 {
        fill: rgba(255,255,255,0.9);
      }

      .cls-1, .cls-3 {
        clip-rule: evenodd;
      }

      .cls-3, .cls-4 {
        fill: #fff;
      }

      .cls-5 {
        clip-path: url(#clip-path);
      }

      .cls-6 {
        clip-path: url(#clip-path-2);
      }

      .cls-7 {
        clip-path: url(#clip-path-3);
      }

      .cls-8 {
        clip-path: url(#clip-path-4);
      }
    </style>
    <clipPath id="clip-path">
      <path id="Path_200" data-name="Path 200" class="cls-1" d="M42.037,4.3,66.028,42.5a9.2,9.2,0,0,1-7.782,14.1H9.192A9.2,9.2,0,0,1,1.509,42.342L26.573,4.15A9.188,9.188,0,0,1,42.037,4.3Z" transform="translate(0 0)"/>
    </clipPath>
    <clipPath id="clip-path-2">
      <path id="Path_199" data-name="Path 199" class="cls-2" d="M0,17685.008H3447.056V0H0Z"/>
    </clipPath>
    <clipPath id="clip-path-3">
      <path id="Path_200-2" data-name="Path 200" class="cls-3" d="M42.891-1.846,66.882,36.345a9.2,9.2,0,0,1-7.782,14.1H10.046A9.2,9.2,0,0,1,2.363,36.191L27.427-2a9.188,9.188,0,0,1,15.464.154Z" transform="translate(-0.853 6.151)"/>
    </clipPath>
    <clipPath id="clip-path-4">
      <path id="Path_199-2" data-name="Path 199" class="cls-4" d="M-132,16821.008H3315.056V-864H-132Z" transform="translate(132 864)"/>
    </clipPath>
  </defs>
  <g id="Flechas" transform="translate(0 0)">
    <g id="Group_234" data-name="Group 234" class="cls-5" transform="translate(67.44 139.407) rotate(180)">
      <g id="Group_233" data-name="Group 233" class="cls-6" transform="translate(-1221.208 -7893.376)">
        <path id="Path_198" data-name="Path 198" class="cls-4" d="M0,148.609H159.361V0H0Z" transform="translate(1175.247 7847.37)"/>
      </g>
    </g>
    <g id="Group_234-2" data-name="Group 234" class="cls-7" transform="translate(0)">
      <g id="Group_233-2" data-name="Group 233" class="cls-8" transform="translate(-1221.208 -7893.376)">
        <path id="Path_198-2" data-name="Path 198" class="cls-4" d="M-4.147,137.458H155.215V-11.151H-4.147Z" transform="translate(1179.394 7858.521)"/>
      </g>
    </g>
  </g>
</svg>
