<svg xmlns="http://www.w3.org/2000/svg" viewBox="0 0 18 18">
  <defs>
    <style>
      .cls-1 {
        fill: #86888c;
      }
    </style>
  </defs>
  <g id="Group_400" data-name="Group 400" transform="translate(-4.834 -4.833)">
    <g id="Group_399" data-name="Group 399" transform="translate(4.834 4.833)">
      <g id="Group_396" data-name="Group 396" transform="translate(1.166 1.183)">
        <path id="Path_2301" data-name="Path 2301" class="cls-1" d="M14.158,61.887l3.457-3.457a4.488,4.488,0,0,1-3.4-3.368L10.77,58.511A9.042,9.042,0,0,0,14.158,61.887Z" transform="translate(-10.754 -46.236)"/>
        <path id="Path_2302" data-name="Path 2302" class="cls-1" d="M61.725,58.511l-3.449-3.449a4.488,4.488,0,0,1-3.4,3.368l3.457,3.457A9.042,9.042,0,0,0,61.725,58.511Z" transform="translate(-46.074 -46.236)"/>
        <path id="Path_2303" data-name="Path 2303" class="cls-1" d="M58.51,10.77l-3.449,3.449a4.488,4.488,0,0,1,3.368,3.4l3.457-3.457A9.037,9.037,0,0,0,58.51,10.77Z" transform="translate(-46.219 -10.77)"/>
        <path id="Path_2304" data-name="Path 2304" class="cls-1" d="M10.688,14.158l3.457,3.457a4.488,4.488,0,0,1,3.368-3.4L14.064,10.77A9.04,9.04,0,0,0,10.688,14.158Z" transform="translate(-10.688 -10.77)"/>
      </g>
      <g id="Group_398" data-name="Group 398" transform="translate(0 0)">
        <g id="Group_397" data-name="Group 397">
          <path id="Path_2305" data-name="Path 2305" class="cls-1" d="M13.834,5.63a8.2,8.2,0,1,1-8.2,8.2,8.212,8.212,0,0,1,8.2-8.2m0,13.484a5.281,5.281,0,1,0-5.281-5.281,5.287,5.287,0,0,0,5.281,5.281m0-14.281a9,9,0,1,0,9,9,9,9,0,0,0-9-9Zm0,13.484a4.483,4.483,0,1,1,4.483-4.483,4.484,4.484,0,0,1-4.483,4.483Z" transform="translate(-4.834 -4.833)"/>
        </g>
      </g>
    </g>
  </g>
</svg>
