<svg xmlns="http://www.w3.org/2000/svg" viewBox="0 0 16 20.571">
  <defs>
    <style>
      .cls-1 {
        fill: #86888c;
        fill-rule: evenodd;
      }
    </style>
  </defs>
  <g id="noun_Document_103674" transform="translate(0)">
    <g id="Group_250" data-name="Group 250" transform="translate(0 0)">
      <path id="Path_269" data-name="Path 269" class="cls-1" d="M.022,19.027a1.829,1.829,0,0,0,1.829,1.828H14.193a1.829,1.829,0,0,0,1.829-1.828V6.224a2.162,2.162,0,0,0-.6-1.426L11.463.869A2.178,2.178,0,0,0,10.039.283H1.852A1.83,1.83,0,0,0,.022,2.111ZM1.852,1.2a.915.915,0,0,0-.915.914V19.027a.914.914,0,0,0,.915.914H14.193a.915.915,0,0,0,.915-.913V6.227H11.219A1.369,1.369,0,0,1,9.85,4.858V1.2Zm12.9,4.115H11.219a.455.455,0,0,1-.455-.455V1.381ZM11.914,9.361a.457.457,0,1,0,0-.914h-8a.457.457,0,0,0,0,.914ZM8.257,6.23a.457.457,0,1,0,0-.914H3.914a.457.457,0,1,0,0,.914Zm3.657,6.331a.457.457,0,1,0,0-.914h-8a.457.457,0,1,0,0,.914Zm0,3.2a.457.457,0,1,0,0-.914h-8a.457.457,0,0,0,0,.914Z" transform="translate(-0.022 -0.283)"/>
    </g>
  </g>
</svg>
