<svg xmlns="http://www.w3.org/2000/svg" viewBox="0 0 17.997 18">
  <defs>
    <style>
      .cls-1 {
        fill: #fff;
      }
    </style>
  </defs>
  <g id="regular_informacion" transform="translate(0 0)">
    <g id="Layer_1" data-name="Layer 1" transform="translate(0 0)">
      <path id="Path_2076" data-name="Path 2076" class="cls-1" d="M9,18a9.186,9.186,0,0,1-6.61-2.217C.8,14.259,0,11.974,0,9S.8,3.748,2.388,2.22A9.183,9.183,0,0,1,9,0c2.859,0,5.084.747,6.609,2.22C17.193,3.749,18,6.03,18,9s-.8,5.257-2.39,6.78A9.184,9.184,0,0,1,9,18ZM9,1C3.688,1,1,3.692,1,9s2.695,8,8,8S17,14.308,17,9,14.309,1,9,1Z" transform="translate(0 0)"/>
      <path id="Path_2077" data-name="Path 2077" class="cls-1" d="M76.97,54.72a.5.5,0,0,1,.5.5l-.007,7.051a.5.5,0,0,1-1,0l.007-7.055A.5.5,0,0,1,76.97,54.72Z" transform="translate(-67.875 -48.576)"/>
      <path id="Path_2078" data-name="Path 2078" class="cls-1" d="M77,37.4a.506.506,0,1,1-.506.505A.461.461,0,0,1,77,37.4Z" transform="translate(-67.902 -33.201)"/>
    </g>
  </g>
</svg>
